<svg width="41" height="48" viewBox="0 0 41 48" fill="none" xmlns="http://www.w3.org/2000/svg">
<path d="M38.6481 20.1232L6.77296 0.615235C4.1831 -0.96801 0.215912 0.568366 0.215912 4.48852V43.496C0.215912 47.0112 3.90057 49.1287 6.77296 47.3674L38.6481 27.8697C41.4915 26.1318 41.5006 21.8574 38.6481 20.1232ZM29.3645 26.5762L10.3834 38.1857C8.45637 39.3715 6.0114 37.926 6.0114 35.6032V12.3748C6.0114 10.0519 8.45637 8.61021 10.3834 9.79319L29.3645 21.4121C29.7979 21.6774 30.1571 22.0551 30.4066 22.5078C30.6561 22.9606 30.7874 23.4729 30.7874 23.9941C30.7874 24.5154 30.6561 25.0277 30.4066 25.4804C30.1571 25.9332 29.7979 26.3108 29.3645 26.5762Z" fill="white" fill-opacity="0.5"/>
<path d="M10.3834 9.79508L29.3645 21.4121C29.7979 21.6774 30.1571 22.0551 30.4066 22.5078C30.6561 22.9606 30.7874 23.4729 30.7874 23.9941C30.7874 24.5154 30.6561 25.0277 30.4066 25.4804C30.1571 25.9332 29.7979 26.3109 29.3645 26.5762L10.3834 38.1857C8.45637 39.3715 6.0114 37.9261 6.0114 35.6032V12.3748C6.0114 10.0538 8.45637 8.6121 10.3834 9.79508Z" fill="white"/>
</svg>
